<svg width="334" height="32" viewBox="0 0 334 32" fill="none" xmlns="http://www.w3.org/2000/svg">
<path fill-rule="evenodd" clip-rule="evenodd" d="M29 20.9395H17.7355V19.7896C18.095 19.7896 18.4545 19.7291 18.9339 19.6686C19.4132 19.6081 19.7727 19.5476 19.8926 19.4265C20.2521 19.3055 20.4917 19.0634 20.6715 18.8213C20.8512 18.5793 20.9112 18.2161 20.9112 17.853V2.17867L13.8409 20.6369H11.9835C11.9236 20.3343 11.6839 19.6686 11.3244 18.7003C10.9649 17.732 10.7252 16.9452 10.4855 16.4006L5.27273 1.99712V14.7666C5.27273 15.9769 5.33264 16.9452 5.5124 17.5504C5.69215 18.1556 5.93182 18.6398 6.29132 18.9424C6.53099 19.1239 6.95041 19.366 7.6095 19.5476C8.2686 19.7291 8.68802 19.8501 8.92769 19.8501V21H0V19.8501C0.239669 19.8501 0.659091 19.7291 1.19835 19.6686C1.7376 19.5476 2.21694 19.366 2.57645 19.1239C2.93595 18.8213 3.23554 18.3977 3.35537 17.732C3.47521 17.0663 3.53512 16.1585 3.53512 14.9481V4.47839C3.53512 3.8732 3.47521 3.32853 3.29545 2.9049C3.1157 2.48127 2.87603 2.17867 2.57645 1.9366C2.15702 1.63401 1.79752 1.45245 1.3781 1.33141C0.958678 1.27089 0.539256 1.21037 0.119835 1.14986V0H9.70661L14.7996 13.7983L19.1136 2.60231C19.2335 2.17867 19.4132 1.69452 19.5331 1.14986C19.6529 0.605187 19.7128 0.181556 19.7727 0H28.9401V1.14986C28.6405 1.14986 28.281 1.21037 27.9814 1.27089C27.6219 1.33141 27.3223 1.39193 27.0227 1.51297C26.6632 1.63401 26.3636 1.81556 26.2438 2.11816C26.124 2.42075 26.064 2.72334 26.064 3.02594V17.853C26.064 18.2161 26.124 18.5187 26.2438 18.7608C26.3636 19.0029 26.6033 19.1844 27.0227 19.366C27.2025 19.4265 27.562 19.5475 27.9814 19.6081C28.4008 19.6686 28.7603 19.7291 29 19.7896V20.9395Z" transform="translate(34 6)" fill="#2B2B2B"/>
<path fill-rule="evenodd" clip-rule="evenodd" d="M13.2678 12.624L10.3194 5.14532L7.42993 12.624H13.2678ZM24 21H12.855V19.8632C13.3857 19.8034 13.9754 19.7436 14.683 19.5641C15.3907 19.3846 15.7445 19.2051 15.7445 19.0256V18.7863C15.7445 18.6667 15.6855 18.547 15.6265 18.3675L13.8575 14.0598H6.78133C6.60442 14.4786 6.42752 14.8974 6.25061 15.4359C6.07371 15.9744 5.89681 16.453 5.7199 16.8718C5.543 17.4103 5.42506 17.8291 5.42506 18.0684C5.36609 18.3077 5.36609 18.4872 5.36609 18.6068C5.36609 18.906 5.60197 19.2051 6.07371 19.3846C6.54545 19.6239 7.31204 19.7436 8.37346 19.8632V21H0V19.8632C0.29484 19.8632 0.648649 19.8034 1.06143 19.6838C1.4742 19.6239 1.76904 19.5043 2.00491 19.3248C2.41769 19.0855 2.71253 18.7863 3.00737 18.4872C3.30221 18.1282 3.47912 17.7692 3.71499 17.2906C4.83538 14.5385 5.95577 11.8462 7.07617 9.09402C8.19656 6.34188 9.43489 3.35043 10.7912 0H13.6806C15.5676 4.66667 17.0418 8.37607 18.1032 11.1282C19.1646 13.8803 20.0491 16.094 20.8157 17.8889C20.9337 18.188 21.1106 18.4273 21.2875 18.6667C21.4644 18.906 21.7592 19.1453 22.113 19.3248C22.4079 19.5043 22.7027 19.6239 23.0565 19.6838C23.4103 19.7436 23.7052 19.8034 24 19.8034V21Z" transform="translate(64 6)" fill="#2B2B2B"/>
<path fill-rule="evenodd" clip-rule="evenodd" d="M20 5.68116H18.8657C18.5672 4.81159 18.0896 3.88406 17.4328 2.89855C16.7761 1.91304 16.1791 1.3913 15.5821 1.33333C15.2836 1.27536 14.8657 1.27536 14.4478 1.21739C13.9701 1.21739 13.6119 1.15942 13.2537 1.15942H12.597V17.9275C12.597 18.2754 12.6567 18.5652 12.7761 18.7971C12.8955 19.029 13.1343 19.2609 13.4925 19.4348C13.7313 19.4928 14.0896 19.6087 14.5075 19.7246C14.9851 19.8406 15.403 19.8986 15.7015 19.8986V21H4.1791V19.8986C4.47761 19.8986 4.83582 19.8406 5.37313 19.7826C5.91045 19.7246 6.20896 19.6667 6.38806 19.6087C6.74627 19.4348 7.04478 19.2609 7.16418 19.029C7.28358 18.7971 7.34328 18.4493 7.34328 18.1014V1.21739H6.74627C6.38806 1.21739 6.02985 1.21739 5.55224 1.27536C5.07463 1.27536 4.71642 1.33333 4.41791 1.3913C3.8806 1.44928 3.22388 1.97101 2.56716 2.95652C1.91045 3.94203 1.43284 4.86957 1.13433 5.73913H0V0H20V5.68116Z" transform="translate(88 6)" fill="#2B2B2B"/>
<path fill-rule="evenodd" clip-rule="evenodd" d="M25 20.9393H14V19.7861C14.2353 19.7861 14.5882 19.7254 15.0588 19.7254C15.5294 19.6647 15.8235 19.604 16 19.5434C16.3529 19.422 16.5882 19.1792 16.7059 18.9364C16.8235 18.6936 16.8824 18.3902 16.8824 18.026V10.8035H8.17647V17.9046C8.17647 18.2688 8.23529 18.5116 8.41177 18.815C8.52941 19.0578 8.76471 19.3006 9.11765 19.422C9.29412 19.4827 9.58824 19.604 10.0588 19.6647C10.4706 19.7254 10.8824 19.7861 11.1176 19.8468V21H0.117647V19.8468C0.352941 19.8468 0.705882 19.7861 1.17647 19.7254C1.64706 19.6647 2 19.604 2.17647 19.5434C2.52941 19.422 2.76471 19.2399 2.88235 18.9364C3 18.6936 3.05882 18.3902 3.05882 18.026V3.15607C3.05882 2.79191 3 2.54913 2.88235 2.30636C2.76471 2.06358 2.52941 1.8815 2.11765 1.69942C1.82353 1.57803 1.47059 1.45665 1 1.33526C0.529412 1.21387 0.235294 1.15318 0 1.15318V0H11V1.15318C10.7059 1.15318 10.3529 1.21387 9.94118 1.27457C9.52941 1.33526 9.23529 1.45665 9 1.51734C8.64706 1.63873 8.35294 1.82081 8.23529 2.12428C8.11765 2.42775 8.05882 2.73121 8.05882 3.03468V9.28613H16.7647V3.15607C16.7647 2.79191 16.7059 2.54913 16.5882 2.30636C16.4706 2.06358 16.2353 1.8815 15.8235 1.69942C15.5882 1.57803 15.2353 1.45665 14.8235 1.39595C14.4118 1.27457 14.0588 1.21387 13.8235 1.21387V0.0606936H24.8235V1.21387C24.5294 1.21387 24.1765 1.27457 23.7647 1.33526C23.3529 1.39595 23.0588 1.45665 22.7059 1.57803C22.3529 1.69942 22.1176 1.8815 22 2.18497C21.8824 2.48844 21.8235 2.79191 21.8235 3.09538V17.9653C21.8235 18.3295 21.8824 18.6329 22 18.8757C22.1176 19.1185 22.3529 19.3006 22.7059 19.4827C22.9412 19.604 23.2941 19.6647 23.7059 19.7254C24.1176 19.7861 24.4706 19.8468 24.7647 19.8468V20.9393H25Z" transform="translate(109 6)" fill="#2B2B2B"/>
<path fill-rule="evenodd" clip-rule="evenodd" d="M18.5542 5.04348H17.4096C17.1084 4.28986 16.6265 3.53623 15.9639 2.72464C15.241 1.97101 14.5783 1.50725 13.9157 1.33333C13.6145 1.27536 13.1928 1.21739 12.7108 1.21739H11.3855H8.37349V8.92754H10.5422C11.0843 8.92754 11.5663 8.86957 11.988 8.75362C12.4096 8.63768 12.8313 8.4058 13.1928 8.05797C13.4337 7.82609 13.6747 7.47826 13.8554 6.89855C14.0964 6.37681 14.2169 5.85507 14.2771 5.44928H15.4217V13.7971H14.2771C14.2169 13.3913 14.0964 12.9275 13.8554 12.2899C13.6145 11.7101 13.3735 11.3043 13.1928 11.0725C12.8916 10.7246 12.4699 10.4928 12.0482 10.3768C11.6265 10.2609 11.0843 10.2029 10.5422 10.2029H8.37349V17C8.37349 17.5797 8.43373 18.1014 8.49398 18.4493C8.61446 18.7971 8.73494 19.087 9.03614 19.2609C9.27711 19.4348 9.63855 19.5507 10.0602 19.6087C10.4819 19.6667 11.0843 19.6667 11.8072 19.6667H13.012C13.494 19.6667 13.9157 19.6087 14.2771 19.6087C14.6988 19.5507 15.0602 19.4928 15.4217 19.3768C15.7831 19.2609 16.0241 19.1449 16.2048 18.971C16.6867 18.5072 17.2289 17.8116 17.7711 16.8841C18.3133 15.9565 18.7349 15.2029 18.9157 14.7391H20L19.5783 21H0V19.8986C0.301205 19.8986 0.662651 19.8406 1.14458 19.7826C1.62651 19.7246 1.92771 19.6667 2.16867 19.6087C2.53012 19.4348 2.77108 19.2609 2.89157 19.029C3.01205 18.7971 3.07229 18.5072 3.07229 18.1594V3.01449C3.07229 2.66667 3.01205 2.37681 2.89157 2.14493C2.77108 1.91304 2.53012 1.73913 2.10843 1.56522C1.86747 1.44928 1.50602 1.33333 1.0241 1.27536C0.542169 1.15942 0.240964 1.10145 0 1.10145V0H18.494V5.04348H18.5542Z" transform="translate(137 6)" fill="#2B2B2B"/>
<path fill-rule="evenodd" clip-rule="evenodd" d="M29 21H17.7588V19.8468C18.1175 19.8468 18.4763 19.7861 18.9546 19.7254C19.433 19.6647 19.7918 19.604 19.9113 19.4827C20.2701 19.3613 20.5093 19.1185 20.6887 18.8757C20.868 18.6329 20.9278 18.2688 20.9278 17.9046V2.18497L13.8124 20.6358H11.9588C11.899 20.3324 11.6598 19.6647 11.301 18.6936C10.9423 17.7225 10.7031 16.9335 10.4639 16.3873L5.20206 1.9422V14.7486C5.20206 15.9624 5.26186 16.9335 5.44124 17.5405C5.62062 18.1474 5.85979 18.6329 6.21856 18.9364C6.45773 19.1185 6.87629 19.3613 7.53402 19.5434C8.19175 19.7254 8.61031 19.8468 8.84948 19.8468V21H0V19.8468C0.239175 19.8468 0.657732 19.7254 1.19588 19.6647C1.73402 19.5434 2.21237 19.3613 2.57113 19.1185C2.9299 18.815 3.22887 18.3902 3.34845 17.7225C3.46804 17.0549 3.52784 16.1445 3.52784 14.9306V4.49133C3.52784 3.88439 3.46804 3.33815 3.28866 2.91329C3.10928 2.48844 2.8701 2.18497 2.57113 1.9422C2.15258 1.63873 1.79381 1.45665 1.37526 1.33526C0.956701 1.21387 0.538144 1.21387 0.119588 1.15318V0H9.6866L14.7691 13.8382L19.0742 2.60983C19.1938 2.18497 19.3732 1.69942 19.4928 1.15318C19.6124 0.606936 19.6722 0.182081 19.732 0H28.8804V1.15318C28.5814 1.15318 28.2227 1.21387 27.9237 1.27457C27.5649 1.33526 27.266 1.39595 26.967 1.51734C26.6082 1.63873 26.3093 1.82081 26.1897 2.12428C26.0701 2.42775 26.0103 2.73121 26.0103 3.03468V17.9046C26.0103 18.2688 26.0701 18.5723 26.1897 18.815C26.3093 19.0578 26.5485 19.2399 26.967 19.422C27.1464 19.4827 27.5052 19.604 27.9237 19.6647C28.3423 19.7254 28.701 19.7861 28.9402 19.8468V21H29Z" transform="translate(158 6)" fill="#2B2B2B"/>
<path fill-rule="evenodd" clip-rule="evenodd" d="M13.2089 12.624L10.2605 5.14532L7.37109 12.624H13.2089ZM23.9404 21H12.7961V19.8632C13.3262 19.8034 13.9159 19.7436 14.6235 19.5641C15.3317 19.3846 15.6849 19.2051 15.6849 19.0256V18.7863C15.6849 18.6667 15.6265 18.547 15.5676 18.3675L13.7985 14.0598H6.72236C6.54486 14.4786 6.36796 14.8974 6.19165 15.4359C6.01474 15.9744 5.83784 16.453 5.66034 16.8718C5.48344 17.4103 5.3655 17.8291 5.3655 18.0684C5.30713 18.3077 5.30713 18.4872 5.30713 18.6068C5.30713 18.906 5.543 19.2051 6.01474 19.3846C6.48649 19.6239 7.25248 19.7436 8.31391 19.8632V21H0V19.8632C0.29484 19.8632 0.648059 19.8034 1.06084 19.6838C1.4742 19.6239 1.76904 19.5043 2.00491 19.3248C2.4171 19.0855 2.71194 18.7863 3.00678 18.4872C3.30162 18.1282 3.47912 17.7692 3.7144 17.2906C4.83538 14.5385 5.95518 11.8462 7.07617 9.09402C8.19656 6.34188 9.43489 3.35043 10.7906 0H13.6806C15.5676 4.66667 17.0418 8.37607 18.1032 11.1282C19.1646 13.8803 20.0491 16.094 20.8151 17.8889C20.9337 18.188 21.11 18.4273 21.2869 18.6667C21.4644 18.906 21.7592 19.1453 22.113 19.3248C22.4079 19.5043 22.7027 19.6239 23.0559 19.6838C23.4103 19.7436 23.7052 19.8034 24 19.8034V21H23.9404Z" transform="translate(188 6)" fill="#2B2B2B"/>
<path fill-rule="evenodd" clip-rule="evenodd" d="M20 5.68116H18.8696C18.572 4.81159 18.0958 3.88406 17.4405 2.89855C16.7863 1.91304 16.1911 1.3913 15.5958 1.33333C15.2982 1.27536 14.881 1.27536 14.4643 1.21739C13.9881 1.21739 13.6315 1.15942 13.2738 1.15942H12.6196V17.9275C12.6196 18.2754 12.6786 18.5652 12.7976 18.7971C12.9173 19.029 13.1548 19.2609 13.5125 19.4348C13.75 19.4928 14.1077 19.6087 14.5244 19.7246C15.0006 19.8406 15.4173 19.8986 15.7149 19.8986V21H4.22619V19.8986C4.52381 19.8986 4.88155 19.8406 5.41667 19.7826C5.95238 19.7246 6.25 19.6667 6.42857 19.6087C6.78631 19.4348 7.08393 19.2609 7.20238 19.029C7.32143 18.7971 7.38155 18.4493 7.38155 18.1014V1.21739H6.72619C6.36964 1.21739 6.0119 1.21739 5.53571 1.27536C5.05952 1.27536 4.70298 1.33333 4.40536 1.3913C3.86905 1.44928 3.21488 1.97101 2.55952 2.95652C1.90536 3.94203 1.42917 4.86957 1.13155 5.73913H0V0H19.9405L20 5.68116Z" transform="translate(212 6)" fill="#2B2B2B"/>
<path fill-rule="evenodd" clip-rule="evenodd" d="M11 21H0V19.8468C0.228606 19.8468 0.629668 19.7861 1.08803 19.7861C1.60425 19.7254 1.89072 19.6647 2.11933 19.604C2.46367 19.4827 2.69228 19.2399 2.80686 18.9971C2.92145 18.7543 2.97875 18.4509 2.97875 18.0867V3.21676C2.97875 2.8526 2.92145 2.60983 2.80686 2.30636C2.69228 2.06358 2.46367 1.82081 2.11933 1.69942C1.89072 1.57803 1.54638 1.51734 1.14589 1.39595C0.686963 1.27457 0.343195 1.21387 0 1.15318V0H11V1.15318C10.7135 1.15318 10.3698 1.21387 9.9687 1.27457C9.56763 1.33526 9.16714 1.39595 8.88067 1.51734C8.53633 1.63873 8.24986 1.82081 8.13527 2.12428C8.02125 2.36705 7.96338 2.73121 7.96338 3.03468V17.9046C7.96338 18.2688 8.02125 18.5723 8.13527 18.815C8.24986 19.0578 8.47961 19.3006 8.88067 19.422C9.05255 19.4827 9.39575 19.604 9.85411 19.6647C10.313 19.7254 10.7135 19.7861 11 19.8468V21Z" transform="translate(233 6)" fill="#2B2B2B"/>
<path fill-rule="evenodd" clip-rule="evenodd" d="M10.8709 22C9.36937 22 7.92793 21.7589 6.60661 21.2767C5.28529 20.7945 4.14414 20.0712 3.12312 19.1068C2.16216 18.2027 1.38138 17.0575 0.840841 15.6712C0.3003 14.2849 0 12.8384 0 11.211C0 9.58356 0.3003 8.07671 0.840841 6.69041C1.38138 5.30411 2.16216 4.09863 3.18318 3.13425C4.2042 2.16986 5.40541 1.3863 6.78679 0.843836C8.16817 0.30137 9.66967 0 11.2913 0C12.4324 0 13.5135 0.120548 14.4144 0.421918C15.3754 0.723288 16.1562 1.02466 16.8168 1.3863L17.7177 0.60274H18.979L19.0991 8.19726H17.8378C17.1171 5.84658 16.2162 4.1589 15.1952 3.07397C14.1742 1.98904 12.9129 1.44658 11.4715 1.44658C9.60961 1.44658 8.22823 2.23014 7.26727 3.85753C6.30631 5.48493 5.82583 7.77534 5.82583 10.7288C5.82583 12.4164 6.00601 13.8027 6.30631 15.0082C6.60661 16.1534 7.08709 17.1178 7.56757 17.8411C8.10811 18.5644 8.82883 19.1068 9.54955 19.4685C10.3303 19.8301 11.1712 20.011 12.1321 20.011C13.5135 20.011 14.7147 19.6493 15.7958 18.8658C16.8769 18.1425 17.8378 16.9973 18.7387 15.4904L20 16.274C19.5796 17.1178 19.0991 17.9014 18.5586 18.5644C18.018 19.2274 17.4174 19.8301 16.6967 20.3123C15.9159 20.8548 15.0751 21.2767 14.1141 21.5781C13.2733 21.8192 12.1321 22 10.8709 22" transform="translate(247 6)" fill="#2B2B2B"/>
<mask id="mask0" mask-type="alpha" maskUnits="userSpaceOnUse" x="268" y="6" width="18" height="22">
<path fill-rule="evenodd" clip-rule="evenodd" d="M0 0H16.9416V21.8216H0V0Z" transform="translate(269 6.05933)" fill="white"/>
</mask>
<g mask="url(#mask0)">
<path fill-rule="evenodd" clip-rule="evenodd" d="M8.55862 21.8216C7.32759 21.8216 6.15517 21.6432 5.10059 21.3459C4.04541 21.0486 3.1069 20.6324 2.40345 20.2162L1.40748 21.227H0.175862L0 13.7946H1.23103C1.52414 14.5081 1.87645 15.2216 2.28679 16.0541C2.69655 16.827 3.22414 17.5405 3.75231 18.1351C4.33852 18.7892 4.98276 19.3243 5.68679 19.7405C6.39024 20.1568 7.26955 20.3351 8.2069 20.3351C9.49714 20.3351 10.4937 20.0378 11.1966 19.3838C11.9 18.7297 12.2523 17.9568 12.2523 16.9459C12.2523 16.1135 11.9592 15.4595 11.373 14.9243C10.7868 14.3892 9.90748 13.9135 8.67586 13.4973C7.85576 13.2595 7.15231 13.0216 6.44828 12.7838C5.80403 12.5459 5.15862 12.3081 4.57241 12.0703C3.22414 11.5351 2.16955 10.7027 1.52414 9.69189C0.87931 8.68108 0.528172 7.49189 0.528172 6.24324C0.528172 5.41081 0.704035 4.63784 1.05517 3.92432C1.40748 3.21081 1.87645 2.4973 2.5799 1.9027C3.22414 1.36757 3.98621 0.891892 4.98276 0.535135C5.9799 0.178378 7.03448 0 8.2069 0C9.32128 0 10.3764 0.178378 11.373 0.475676C12.369 0.772973 13.1316 1.12973 13.7178 1.42703L14.5971 0.535135H15.8276L15.9454 7.55135H14.6552C14.3621 6.77838 14.0109 6.00541 13.6586 5.23243C13.2483 4.45946 12.8385 3.80541 12.4282 3.27027C11.9592 2.73514 11.431 2.25946 10.7868 1.9027C10.2006 1.54595 9.43793 1.42703 8.61783 1.42703C7.56265 1.42703 6.74138 1.72432 6.09714 2.31892C5.45172 2.91351 5.10059 3.62703 5.10059 4.51892C5.10059 5.35135 5.39369 6.00541 5.9799 6.54054C6.5661 7.07568 7.44541 7.55135 8.61783 7.90811C9.32128 8.14595 10.0241 8.38378 10.7868 8.62162C11.5489 8.85946 12.1931 9.0973 12.7213 9.33514C14.1276 9.87027 15.1833 10.6432 15.8862 11.5946C16.5897 12.5459 16.942 13.7351 16.942 15.1622C16.942 16.0541 16.7069 16.8865 16.3558 17.7189C15.9454 18.5514 15.4172 19.2649 14.7138 19.8C13.9517 20.3946 13.0724 20.8703 12.0759 21.227C11.0799 21.6432 9.90748 21.8216 8.55862 21.8216" transform="translate(269 6.05933)" fill="#2B2B2B"/>
</g>
<path fill-rule="evenodd" clip-rule="evenodd" d="M10 3L5.02857 6L0 3L4.97143 0L10 3Z" transform="translate(9)" fill="#909090"/>
<path fill-rule="evenodd" clip-rule="evenodd" d="M5 0V5.98026L0 9V3.01974L5 0Z" transform="translate(14 3)" fill="#7C7C7C"/>
<path fill-rule="evenodd" clip-rule="evenodd" d="M10 3L5 6L0 3L5 0L10 3Z" transform="translate(17 5)" fill="#909090"/>
<path fill-rule="evenodd" clip-rule="evenodd" d="M5 0V5.98026L0 9V3.01974L5 0Z" transform="translate(22 8)" fill="#7C7C7C"/>
<path fill-rule="evenodd" clip-rule="evenodd" d="M5 3.01974V9L0 5.98026V0L5 3.01974Z" transform="translate(17 8)" fill="#4A4A4A"/>
<path fill-rule="evenodd" clip-rule="evenodd" d="M10 3L5 6L0 3L5 0L10 3Z" transform="translate(17 15)" fill="#909090"/>
<path fill-rule="evenodd" clip-rule="evenodd" d="M5 0V5.98026L0 9V3.01974L5 0Z" transform="translate(22 18)" fill="#7C7C7C"/>
<path fill-rule="evenodd" clip-rule="evenodd" d="M5 3.01974V9L0 5.98026V0L5 3.01974Z" transform="translate(17 18)" fill="#4A4A4A"/>
<path fill-rule="evenodd" clip-rule="evenodd" d="M10 3L5.02857 6L0 3L4.97143 0L10 3Z" transform="translate(9 20)" fill="#909090"/>
<path fill-rule="evenodd" clip-rule="evenodd" d="M5 0V5.98026L0 9V3.01974L5 0Z" transform="translate(14 23)" fill="#7C7C7C"/>
<path fill-rule="evenodd" clip-rule="evenodd" d="M5 3.01974V9L0 5.98026L0.0561798 0L5 3.01974Z" transform="translate(9 23)" fill="#4A4A4A"/>
<path fill-rule="evenodd" clip-rule="evenodd" d="M10 3L5 6L0 3L5 0L10 3Z" transform="translate(0 15)" fill="#909090"/>
<path fill-rule="evenodd" clip-rule="evenodd" d="M5 0V5.98026L0 9V3.01974L5 0Z" transform="translate(5 18)" fill="#7C7C7C"/>
<mask id="mask1" mask-type="alpha" maskUnits="userSpaceOnUse" x="0" y="18" width="5" height="9">
<path fill-rule="evenodd" clip-rule="evenodd" d="M0 0H4.88878V8.55H0V0Z" transform="translate(0 18.1687)" fill="white"/>
</mask>
<g mask="url(#mask1)">
<path fill-rule="evenodd" clip-rule="evenodd" d="M4.88889 2.86875V8.55L0 5.68125V0L4.88889 2.86875Z" transform="translate(0 18.1687)" fill="#4A4A4A"/>
</g>
<path fill-rule="evenodd" clip-rule="evenodd" d="M10 3L5.02857 6L0 3L4.97143 0L10 3Z" transform="translate(0 5)" fill="#909090"/>
<path fill-rule="evenodd" clip-rule="evenodd" d="M5 0V5.98026L0 9V3.01974L5 0Z" transform="translate(5 8)" fill="#7C7C7C"/>
<mask id="mask2" mask-type="alpha" maskUnits="userSpaceOnUse" x="0" y="8" width="5" height="9">
<path fill-rule="evenodd" clip-rule="evenodd" d="M0 0H4.94439V8.55H0V0Z" transform="translate(0 8.28131)" fill="white"/>
</mask>
<g mask="url(#mask2)">
<path fill-rule="evenodd" clip-rule="evenodd" d="M4.94444 2.86875V8.55L0 5.68125L0.0555556 0L4.94444 2.86875Z" transform="translate(0 8.28131)" fill="#4A4A4A"/>
</g>
<path fill-rule="evenodd" clip-rule="evenodd" d="M5 9L0 5.98026V0L5 3.01974V9Z" transform="translate(9 3)" fill="#4A4A4A"/>
<path d="M16.6406 12.5879H11.9434V11.9434C12.0931 11.9303 12.2428 11.9173 12.3926 11.9043C12.5488 11.8913 12.6855 11.8652 12.8027 11.8262C12.985 11.7676 13.1185 11.6667 13.2031 11.5234C13.2943 11.3737 13.3398 11.1816 13.3398 10.9473V5.97656C13.3398 5.29948 13.1836 4.77865 12.8711 4.41406C12.5651 4.04297 12.181 3.85742 11.7188 3.85742C11.3997 3.85742 11.1003 3.90625 10.8203 4.00391C10.5404 4.10156 10.2832 4.23828 10.0488 4.41406C9.86003 4.55729 9.70052 4.71354 9.57031 4.88281C9.44661 5.04557 9.35221 5.18229 9.28711 5.29297V10.8496C9.28711 11.0775 9.32617 11.2663 9.4043 11.416C9.48242 11.5592 9.61589 11.6699 9.80469 11.748C9.95443 11.8066 10.0879 11.8522 10.2051 11.8848C10.3288 11.9108 10.4883 11.9303 10.6836 11.9434V12.5879H6.08398V11.9434C6.23372 11.9303 6.37695 11.9173 6.51367 11.9043C6.6569 11.8913 6.78711 11.8652 6.9043 11.8262C7.08659 11.7676 7.22005 11.6667 7.30469 11.5234C7.39583 11.3737 7.44141 11.1816 7.44141 10.9473V5.97656C7.44141 5.29948 7.28516 4.77865 6.97266 4.41406C6.66667 4.04297 6.28255 3.85742 5.82031 3.85742C5.5013 3.85742 5.20182 3.90951 4.92188 4.01367C4.64193 4.11133 4.38477 4.24805 4.15039 4.42383C3.96159 4.56706 3.80208 4.72982 3.67188 4.91211C3.54167 5.08789 3.44401 5.22135 3.37891 5.3125V10.8301C3.37891 11.0514 3.42448 11.237 3.51562 11.3867C3.60677 11.5365 3.74349 11.6504 3.92578 11.7285C4.0625 11.7936 4.20247 11.8424 4.3457 11.875C4.48893 11.9076 4.64844 11.9303 4.82422 11.9434V12.5879H0.146484V11.9434C0.296224 11.9303 0.449219 11.9173 0.605469 11.9043C0.768229 11.8913 0.908203 11.8652 1.02539 11.8262C1.20768 11.7676 1.34115 11.6667 1.42578 11.5234C1.51693 11.3737 1.5625 11.1816 1.5625 10.9473V4.96094C1.5625 4.7526 1.51367 4.56706 1.41602 4.4043C1.32487 4.23503 1.19466 4.0918 1.02539 3.97461C0.901693 3.89648 0.748698 3.83464 0.566406 3.78906C0.384115 3.73698 0.195312 3.70443 0 3.69141V3.05664L3.22266 2.8418L3.35938 2.97852V4.35547H3.42773C3.59049 4.19271 3.78906 4.00065 4.02344 3.7793C4.25781 3.55794 4.47591 3.37891 4.67773 3.24219C4.9056 3.08594 5.1888 2.95573 5.52734 2.85156C5.8724 2.7474 6.24349 2.69531 6.64062 2.69531C7.26562 2.69531 7.80273 2.86458 8.25195 3.20312C8.70117 3.53516 9.02344 3.9388 9.21875 4.41406C9.45312 4.1862 9.6582 3.98763 9.83398 3.81836C10.0163 3.64258 10.2539 3.45703 10.5469 3.26172C10.7943 3.09245 11.084 2.95573 11.416 2.85156C11.7546 2.7474 12.1289 2.69531 12.5391 2.69531C13.3529 2.69531 13.9974 2.96224 14.4727 3.49609C14.9479 4.02995 15.1855 4.85026 15.1855 5.95703V10.8496C15.1855 11.0775 15.2246 11.2663 15.3027 11.416C15.3809 11.5592 15.5143 11.6699 15.7031 11.748C15.8529 11.8066 15.9993 11.8522 16.1426 11.8848C16.2923 11.9108 16.4583 11.9303 16.6406 11.9434V12.5879Z" transform="translate(289.557 15.4121)" fill="#8E1B20"/>
<path d="M26.3184 10.3223C25.9147 11.0905 25.3743 11.7025 24.6973 12.1582C24.0202 12.6139 23.2422 12.8418 22.3633 12.8418C21.5885 12.8418 20.9082 12.7051 20.3223 12.4316C19.7428 12.1582 19.2643 11.7871 18.8867 11.3184C18.5091 10.8496 18.2259 10.3027 18.0371 9.67773C17.8548 9.05273 17.7637 8.39193 17.7637 7.69531C17.7637 7.07031 17.8613 6.45833 18.0566 5.85938C18.2585 5.25391 18.5514 4.71029 18.9355 4.22852C19.3066 3.76628 19.7656 3.39518 20.3125 3.11523C20.8659 2.82878 21.4844 2.68555 22.168 2.68555C22.8711 2.68555 23.4733 2.79622 23.9746 3.01758C24.4759 3.23893 24.8828 3.54167 25.1953 3.92578C25.4948 4.29036 25.7161 4.72005 25.8594 5.21484C26.0091 5.70964 26.084 6.24674 26.084 6.82617V7.4707H19.707C19.707 8.10221 19.7656 8.67513 19.8828 9.18945C20.0065 9.70378 20.1986 10.1562 20.459 10.5469C20.7129 10.9245 21.0449 11.224 21.4551 11.4453C21.8652 11.6602 22.3535 11.7676 22.9199 11.7676C23.4993 11.7676 23.9974 11.6341 24.4141 11.3672C24.8372 11.0938 25.2441 10.6055 25.6348 9.90234L26.3184 10.3223ZM24.1602 6.65039C24.1602 6.28581 24.1276 5.89518 24.0625 5.47852C24.0039 5.06185 23.9062 4.71354 23.7695 4.43359C23.6198 4.13411 23.4147 3.88997 23.1543 3.70117C22.8939 3.51237 22.5586 3.41797 22.1484 3.41797C21.4648 3.41797 20.8952 3.70443 20.4395 4.27734C19.9902 4.84375 19.7461 5.63477 19.707 6.65039H24.1602Z" transform="translate(289.557 15.4121)" fill="#8E1B20"/>
<path d="M33.3789 12.168C32.9557 12.3438 32.5553 12.4902 32.1777 12.6074C31.8001 12.7311 31.3379 12.793 30.791 12.793C29.9837 12.793 29.4141 12.5911 29.082 12.1875C28.7565 11.7773 28.5938 11.2012 28.5938 10.459V3.93555H26.8555V2.99805H28.6328V0H30.4102V2.99805H33.1738V3.93555H30.4297V9.31641C30.4297 9.72005 30.4427 10.0586 30.4688 10.332C30.5013 10.599 30.5729 10.8333 30.6836 11.0352C30.7878 11.224 30.944 11.3672 31.1523 11.4648C31.3607 11.5625 31.6406 11.6113 31.9922 11.6113C32.1549 11.6113 32.3926 11.5983 32.7051 11.5723C33.0241 11.5397 33.2487 11.5007 33.3789 11.4551V12.168Z" transform="translate(289.557 15.4121)" fill="#8E1B20"/>
<path d="M43.4668 12.4121C43.1608 12.5228 42.8906 12.6107 42.6562 12.6758C42.4284 12.7474 42.168 12.7832 41.875 12.7832C41.3672 12.7832 40.9603 12.666 40.6543 12.4316C40.3548 12.1908 40.1628 11.8424 40.0781 11.3867H40.0195C39.5964 11.8555 39.1406 12.2135 38.6523 12.4609C38.1706 12.7083 37.5879 12.832 36.9043 12.832C36.1816 12.832 35.5859 12.6107 35.1172 12.168C34.6549 11.7253 34.4238 11.1458 34.4238 10.4297C34.4238 10.0586 34.4759 9.72656 34.5801 9.43359C34.6842 9.14062 34.8405 8.87695 35.0488 8.64258C35.2116 8.44727 35.4264 8.27474 35.6934 8.125C35.9603 7.96875 36.2109 7.84505 36.4453 7.75391C36.7383 7.64323 37.3307 7.43815 38.2227 7.13867C39.1211 6.83919 39.7266 6.60482 40.0391 6.43555V5.46875C40.0391 5.38411 40.0195 5.22135 39.9805 4.98047C39.9479 4.73958 39.873 4.51172 39.7559 4.29688C39.6257 4.05599 39.4401 3.84766 39.1992 3.67188C38.9648 3.48958 38.6296 3.39844 38.1934 3.39844C37.8939 3.39844 37.6139 3.45052 37.3535 3.55469C37.0996 3.65234 36.9206 3.75651 36.8164 3.86719C36.8164 3.9974 36.8457 4.18945 36.9043 4.44336C36.9694 4.69727 37.002 4.93164 37.002 5.14648C37.002 5.37435 36.8978 5.58268 36.6895 5.77148C36.4876 5.96029 36.2044 6.05469 35.8398 6.05469C35.5143 6.05469 35.2734 5.94076 35.1172 5.71289C34.9674 5.47852 34.8926 5.2181 34.8926 4.93164C34.8926 4.63216 34.9967 4.3457 35.2051 4.07227C35.4199 3.79883 35.6966 3.55469 36.0352 3.33984C36.3281 3.15755 36.6829 3.00456 37.0996 2.88086C37.5163 2.75065 37.9232 2.68555 38.3203 2.68555C38.8672 2.68555 39.3424 2.72461 39.7461 2.80273C40.1562 2.87435 40.5273 3.03385 40.8594 3.28125C41.1914 3.52214 41.4421 3.85091 41.6113 4.26758C41.7871 4.67773 41.875 5.20833 41.875 5.85938C41.875 6.79036 41.8652 7.61719 41.8457 8.33984C41.8262 9.05599 41.8164 9.84049 41.8164 10.6934C41.8164 10.9473 41.8587 11.1491 41.9434 11.2988C42.0345 11.4486 42.1712 11.5755 42.3535 11.6797C42.4512 11.7383 42.6042 11.7708 42.8125 11.7773C43.0273 11.7839 43.2454 11.7871 43.4668 11.7871V12.4121ZM40.0586 7.25586C39.5052 7.41862 39.0202 7.57812 38.6035 7.73438C38.1868 7.89062 37.7995 8.08594 37.4414 8.32031C37.1159 8.54167 36.8587 8.80534 36.6699 9.11133C36.4811 9.41081 36.3867 9.76888 36.3867 10.1855C36.3867 10.7259 36.5267 11.123 36.8066 11.377C37.0931 11.6309 37.4544 11.7578 37.8906 11.7578C38.3529 11.7578 38.7598 11.6471 39.1113 11.4258C39.4629 11.1979 39.7591 10.931 40 10.625L40.0586 7.25586Z" transform="translate(289.557 15.4121)" fill="#8E1B20"/>
</svg>
